<?xml version="1.0" encoding="utf-8"?>
<!-- Generator: Adobe Illustrator 19.2.1, SVG Export Plug-In . SVG Version: 6.00 Build 0)  -->
<svg version="1.1" id="Layer_1" xmlns:sketch="http://www.bohemiancoding.com/sketch/ns"
	 xmlns="http://www.w3.org/2000/svg" xmlns:xlink="http://www.w3.org/1999/xlink" x="0px" y="0px" viewBox="0 0 66 42"
	 style="enable-background:new 0 0 66 42;" xml:space="preserve">
<style type="text/css">
	.st0{fill:#B3B5C5;}
</style>
<title>GooglePlus-black</title>
<desc>Created with Sketch.</desc>
<g id="Behance">
	<path class="st0" d="M27.2,19c1.4-0.7,2.3-1.4,3-2.3c1.2-1.4,1.8-3.4,1.8-5.9c0-2.3-0.5-4.4-1.8-6c-2.1-2.7-5.5-4.1-10.5-4.3H0.4
		v39.6h18.1c2.1,0,3.9-0.2,5.7-0.5c1.8-0.4,3.2-1.1,4.6-2c1.1-0.9,2.1-2,2.8-3.2c1.2-1.8,1.8-3.9,1.8-6.4c0-2.3-0.5-4.3-1.6-5.9
		C30.8,21,29.4,19.8,27.2,19z M8.6,7.7h8.7c2,0,3.6,0.2,4.8,0.5c1.4,0.5,2.1,1.8,2.1,3.7c0,1.6-0.5,2.8-1.6,3.6
		c-1.1,0.7-2.5,1.1-4.3,1.1H8.6V7.7z M22.4,32.7c-0.9,0.5-2.3,0.7-4.1,0.7H8.6V22.8h10c1.8,0,3,0.2,4.1,0.7c1.8,0.7,2.5,2.1,2.5,4.3
		C24.9,30.2,24,32,22.4,32.7z"/>
	<rect x="42.2" y="2.5" class="st0" width="17.2" height="5"/>
	<path class="st0" d="M62.9,16c-1.4-2-3-3.4-5.2-4.3s-4.4-1.4-6.9-1.4c-4.4,0-7.8,1.4-10.7,4.1c-2.7,2.7-4.1,6.6-4.1,11.7
		c0,5.5,1.4,9.4,4.6,11.7c3,2.5,6.6,3.6,10.5,3.6c4.8,0,8.5-1.4,11.2-4.3c1.8-1.8,2.7-3.6,2.8-5.3h-8c-0.5,0.9-1.1,1.6-1.6,2
		c-1.1,0.9-2.5,1.4-4.3,1.4c-1.6,0-3-0.4-4.3-1.1c-2-1.2-3-3.2-3.2-6.2h21.7c0-2.5,0-4.4-0.2-5.9C64.9,19.8,64.2,17.8,62.9,16z
		 M44.1,22.8c0.4-2,0.9-3.4,2.1-4.6c1.1-1.1,2.7-1.6,4.6-1.6c1.8,0,3.4,0.5,4.6,1.6c1.2,1.1,2,2.7,2.1,4.6H44.1z"/>
</g>
</svg>
