<?xml version="1.0" encoding="utf-8"?>
<!-- Generator: Adobe Illustrator 19.2.1, SVG Export Plug-In . SVG Version: 6.00 Build 0)  -->
<svg version="1.1" id="Layer_1" xmlns:sketch="http://www.bohemiancoding.com/sketch/ns"
	 xmlns="http://www.w3.org/2000/svg" xmlns:xlink="http://www.w3.org/1999/xlink" x="0px" y="0px" viewBox="0 0 41.7 42"
	 style="enable-background:new 0 0 41.7 42;" xml:space="preserve">
<style type="text/css">
	.st0{fill:#B3B5C5;}
</style>
<title>GooglePlus-black</title>
<desc>Created with Sketch.</desc>
<path id="Dribbble" class="st0" d="M39.9,13c-0.6-1.2-1.1-2.4-1.9-3.5s-1.6-2.2-2.5-3.1c-0.9-0.9-1.9-1.8-3.1-2.5
	c-1.1-0.8-2.3-1.4-3.5-1.9c-1.2-0.6-2.6-0.9-3.9-1.2c-1.4-0.2-2.7-0.5-4.2-0.5c-1.4,0-2.8,0.1-4.2,0.5c-1.4,0.2-2.6,0.7-3.9,1.2
	s-2.4,1.1-3.5,1.9S7.1,5.5,6.2,6.4C5.3,7.3,4.4,8.3,3.7,9.4c-0.8,1.1-1.4,2.3-1.9,3.5s-0.9,2.6-1.2,3.9c-0.2,1.4-0.5,2.7-0.5,4.2
	c0,1.4,0.1,2.8,0.5,4.2c0.2,1.4,0.7,2.6,1.2,3.9c0.6,1.2,1.1,2.4,1.9,3.5s1.6,2.2,2.5,3.1c0.9,0.9,1.9,1.8,3.1,2.5
	c1.1,0.8,2.3,1.4,3.5,1.9s2.6,0.9,3.9,1.2c1.4,0.3,2.7,0.5,4.2,0.5c1.4,0,2.8-0.1,4.2-0.5c1.4-0.2,2.6-0.7,3.9-1.2
	c1.2-0.6,2.4-1.1,3.5-1.9c1.1-0.8,2.2-1.6,3.1-2.5c0.9-0.9,1.8-1.9,2.5-3.1c0.8-1.1,1.4-2.3,1.9-3.5s0.9-2.6,1.2-3.9
	c0.2-1.4,0.5-2.7,0.5-4.2c0-1.4-0.1-2.8-0.5-4.2C40.8,15.6,40.5,14.2,39.9,13z M20.7,3.3c4.5,0,8.6,1.7,11.7,4.4
	c0,0.1-2.6,4-9.3,6.5c-3.1-5.6-6.3-10-6.7-10.3C17.9,3.5,19.4,3.3,20.7,3.3z M16.5,3.8C16.5,3.9,16.5,3.9,16.5,3.8
	C16.5,3.9,16.5,3.9,16.5,3.8C16.4,3.9,16.5,3.9,16.5,3.8z M13.1,5c0.2,0.3,3.5,4.8,6.6,10.2c-8.5,2.3-15.9,2.2-16.4,2.2
	C4.5,11.9,8.3,7.4,13.1,5z M7.6,32.9C4.8,29.7,3.1,25.6,3.1,21c0-0.2,0-0.3,0-0.6c0.3,0,9.1,0.2,18.3-2.5c0.5,1,1,2,1.5,3.1
	c-0.2,0.1-0.5,0.1-0.7,0.2C12.5,24.3,7.6,32.9,7.6,32.9L7.6,32.9z M20.7,38.8c-4.2,0-8-1.5-11.1-3.9c-0.1,0-0.1-0.1-0.2-0.2
	c0.1,0.1,0.1,0.1,0.2,0.2c0.1,0.1,0.2,0.1,0.2,0.1s3.4-7.4,13.9-11.1h0.1c2.5,6.5,3.5,11.9,3.7,13.5C25.6,38.3,23.2,38.8,20.7,38.8z
	 M30.7,35.7c-0.2-1-1.1-6.2-3.4-12.7c5.8-0.9,10.7,0.7,11.1,0.8C37.5,28.8,34.7,33.1,30.7,35.7z M26.2,20.3
	c-0.1-0.3-0.2-0.6-0.3-0.9c-0.3-0.9-0.8-1.7-1.1-2.6c7-2.8,9.9-7,9.9-7c2.5,3.1,4,6.9,4.1,11.1C38.3,20.8,32.3,19.5,26.2,20.3z"/>
</svg>
