<?xml version="1.0" encoding="utf-8"?>
<!-- Generator: Adobe Illustrator 19.2.1, SVG Export Plug-In . SVG Version: 6.00 Build 0)  -->
<svg version="1.1" id="Layer_1" xmlns:sketch="http://www.bohemiancoding.com/sketch/ns"
	 xmlns="http://www.w3.org/2000/svg" xmlns:xlink="http://www.w3.org/1999/xlink" x="0px" y="0px" viewBox="0 0 42.3 42"
	 style="enable-background:new 0 0 42.3 42;" xml:space="preserve">
<style type="text/css">
	.st0{fill:#B3B5C5;}
</style>
<title>GooglePlus-black</title>
<desc>Created with Sketch.</desc>
<path id="Facebook" class="st0" d="M42,39.5c0,1.2-1,2.3-2.3,2.3H29.1V25.7h5.4l0.8-6.2h-6.2v-4c0-1.8,0.5-3.1,3.1-3.1h3.3V6.7
	c-0.6-0.1-2.5-0.2-4.9-0.2c-4.8,0-8.1,3-8.1,8.3v4.7h-5.4v6.2h5.4v16.1h-20c-1.2,0-2.3-1-2.3-2.3v-37c0-1.2,1-2.3,2.3-2.3h37.1
	c1.2,0,2.3,1,2.3,2.3L42,39.5L42,39.5z"/>
</svg>
