<?xml version="1.0" encoding="utf-8"?>
<!-- Generator: Adobe Illustrator 19.2.1, SVG Export Plug-In . SVG Version: 6.00 Build 0)  -->
<svg version="1.1" id="Layer_1" xmlns:sketch="http://www.bohemiancoding.com/sketch/ns"
	 xmlns="http://www.w3.org/2000/svg" xmlns:xlink="http://www.w3.org/1999/xlink" x="0px" y="0px" viewBox="0 0 41.8 42"
	 style="enable-background:new 0 0 41.8 42;" xml:space="preserve">
<style type="text/css">
	.st0{fill:#B3B5C5;}
</style>
<title>GooglePlus-black</title>
<desc>Created with Sketch.</desc>
<g>
	<path class="st0" d="M20.9,3.9c5.6,0,6.2,0,8.4,0.1c2,0.1,3.1,0.4,3.9,0.7c1,0.4,1.7,0.8,2.4,1.6c0.7,0.7,1.2,1.4,1.6,2.4
		c0.3,0.7,0.6,1.8,0.7,3.9C38,14.8,38,15.4,38,21s0,6.2-0.1,8.4c-0.1,2-0.4,3.1-0.7,3.9c-0.4,1-0.8,1.7-1.6,2.4
		c-0.7,0.7-1.4,1.2-2.4,1.6c-0.7,0.3-1.8,0.6-3.9,0.7c-2.2,0.1-2.9,0.1-8.4,0.1s-6.2,0-8.4-0.1c-2-0.1-3.1-0.4-3.9-0.7
		c-1-0.4-1.7-0.8-2.4-1.6c-0.7-0.7-1.2-1.4-1.6-2.4c-0.3-0.7-0.6-1.8-0.7-3.9c-0.1-2.2-0.1-2.9-0.1-8.4s0-6.2,0.1-8.4
		c0.1-2,0.4-3.1,0.7-3.9c0.4-1,0.8-1.7,1.6-2.4C7,5.6,7.7,5.2,8.6,4.8c0.7-0.3,1.8-0.6,3.9-0.7C14.7,4,15.4,3.9,20.9,3.9 M20.9,0.2
		c-5.7,0-6.4,0-8.6,0.1c-2.2,0.1-3.7,0.5-5.1,1C5.9,1.8,4.8,2.5,3.6,3.7C2.4,4.8,1.7,6,1.2,7.4c-0.5,1.3-0.9,2.8-1,5.1
		c-0.1,2.2-0.1,2.9-0.1,8.6c0,5.7,0,6.4,0.1,8.6c0.1,2.2,0.5,3.7,1,5.1c0.5,1.4,1.2,2.5,2.4,3.7c1.2,1.2,2.3,1.9,3.7,2.4
		c1.3,0.5,2.8,0.9,5.1,1c2.2,0.1,2.9,0.1,8.6,0.1s6.4,0,8.6-0.1c2.2-0.1,3.7-0.5,5.1-1c1.4-0.5,2.5-1.2,3.7-2.4
		c1.2-1.2,1.9-2.3,2.4-3.7c0.5-1.3,0.9-2.8,1-5.1c0.1-2.2,0.1-2.9,0.1-8.6s0-6.4-0.1-8.6c-0.1-2.2-0.5-3.7-1-5.1
		c-0.5-1.4-1.2-2.5-2.4-3.7c-1.2-1.2-2.3-1.9-3.7-2.4c-1.3-0.5-2.8-0.9-5.1-1C27.3,0.2,26.6,0.2,20.9,0.2L20.9,0.2z"/>
	<path class="st0" d="M20.9,10.3c-5.9,0-10.7,4.8-10.7,10.7S15,31.7,20.9,31.7S31.6,26.9,31.6,21S26.8,10.3,20.9,10.3z M20.9,27.9
		c-3.8,0-6.9-3.1-6.9-6.9s3.1-6.9,6.9-6.9s6.9,3.1,6.9,6.9S24.8,27.9,20.9,27.9z"/>
	<circle class="st0" cx="32" cy="9.9" r="2.5"/>
</g>
</svg>
